HIERARCHY
ROOT Hips
{
	OFFSET 0.000000 8.830580 0.000000
	CHANNELS 6 Xposition Yposition Zposition Zrotation Yrotation Xrotation 
	JOINT Spine
	{
		OFFSET 0.000000 0.010000 0.000000
		CHANNELS 3 Zrotation Yrotation Xrotation
		JOINT Spine1
		{
			OFFSET 0.000000 2.459130 0.000000
			CHANNELS 3 Zrotation Yrotation Xrotation
			JOINT Neck
			{
				OFFSET 0.000000 2.484630 0.000000
				CHANNELS 3 Zrotation Yrotation Xrotation
				JOINT Head_virtual
				{
					OFFSET 0.000000 0.000000 0.000000
					CHANNELS 3 Zrotation Yrotation Xrotation
					JOINT Head
					{
						OFFSET 0.000000 0.927525 0.000000
						CHANNELS 3 Zrotation Yrotation Xrotation
						End Site
						{
							OFFSET 0.000000 0.000000 0.000000
						}
					}
				}
				JOINT LeftUpArm_virtual
				{
					OFFSET 0.000000 0.000000 0.000000
					CHANNELS 3 Zrotation Yrotation Xrotation
					JOINT LeftUpArm
					{
						OFFSET 1.248820 0.000000 0.000000
						CHANNELS 3 Zrotation Yrotation Xrotation
						JOINT LeftForeArm
						{
							OFFSET 2.597580 0.000000 0.000000
							CHANNELS 3 Zrotation Yrotation Xrotation
							JOINT LeftHand
							{
								OFFSET 2.455420 0.000000 0.000000
								CHANNELS 3 Zrotation Yrotation Xrotation
								End Site
								{
									OFFSET 0.000000 0.000000 0.000000
								}
							}
						}
					}
				}
				JOINT RightUpArm_virtual
				{
					OFFSET -0.000000 -0.000000 -0.000000
					CHANNELS 3 Zrotation Yrotation Xrotation
					JOINT RightUpArm
					{
						OFFSET -1.248820 -0.000000 -0.000000
						CHANNELS 3 Zrotation Yrotation Xrotation
						JOINT RightForeArm
						{
							OFFSET -2.597580 -0.000000 -0.000000
							CHANNELS 3 Zrotation Yrotation Xrotation
							JOINT RightHand
							{
								OFFSET -2.455420 -0.000000 -0.000000
								CHANNELS 3 Zrotation Yrotation Xrotation
								End Site
								{
									OFFSET 0.000000 0.000000 0.000000
								}
							}
						}
					}
				}
			}
		}
	}
	JOINT LeftUpLeg
	{
		OFFSET 1.271939 0.000000 0.000000
		CHANNELS 3 Zrotation Yrotation Xrotation
		JOINT LeftLowLeg
		{
			OFFSET 0.000000 -4.342910 0.000000
			CHANNELS 3 Zrotation Yrotation Xrotation
			JOINT LeftFoot
			{
				OFFSET 0.000000 -4.487670 0.000000
				CHANNELS 3 Zrotation Yrotation Xrotation
				JOINT LeftToeBase
				{
					OFFSET 0.000000 0.000000 1.515070
					CHANNELS 3 Zrotation Yrotation Xrotation
					End Site
					{
						OFFSET 0.000000 0.000000 0.000000
					}
				}
			}
		}
	}
	JOINT RightUpLeg
	{
		OFFSET -1.271939 0.000000 0.000000
		CHANNELS 3 Zrotation Yrotation Xrotation
		JOINT RightLowLeg
		{
			OFFSET 0.000000 -4.342910 0.000000
			CHANNELS 3 Zrotation Yrotation Xrotation
			JOINT RightFoot
			{
				OFFSET 0.000000 -4.487670 0.000000
				CHANNELS 3 Zrotation Yrotation Xrotation
				JOINT RightToeBase
				{
					OFFSET 0.000000 0.000000 1.515070
					CHANNELS 3 Zrotation Yrotation Xrotation
					End Site
					{
						OFFSET 0.000000 0.000000 0.000000
					}
				}
			}
		}
	}
}
MOTION
Frames: 7
Frame Time: 0.041667
-23.211026 9.262669 53.214004 -178.507437 42.218461 178.471897 5.187285 -6.710594 -19.960599 1.716616 1.088226 38.625257 0.000000 0.000000 0.000000 -19.236634 7.891822 4.320214 0.931870 15.202565 -55.966304 -29.702400 -3.248400 -8.917020 -33.952202 -0.070917 38.408600 0.000000 -32.382801 0.000000 29.906200 -7.834590 21.984699 25.804800 3.968590 -4.539320 36.776600 8.157840 22.532600 0.000000 26.045300 0.000000 -7.839430 0.112668 -5.702990 8.168143 5.617080 -3.608962 0.000000 0.000000 21.373301 -8.685191 10.074014 9.717762 0.000000 0.000000 -22.034400 9.669797 6.722266 6.455145 0.000000 0.000000 5.871790 12.561708 -23.376944 8.567246 0.000000 0.000000 -11.942910 
-23.213112 9.257206 53.213793 -178.261117 42.404582 178.530949 5.329186 -6.869400 -20.273053 2.067719 1.003229 38.468377 0.000000 0.000000 0.000000 -21.043746 9.708949 6.237406 0.852636 15.466645 -53.413989 -29.801399 -3.255520 -8.523670 -33.507599 -0.567791 38.260502 0.000000 -33.696301 0.000000 32.418701 -9.797750 22.545601 25.637699 3.949300 -4.161110 36.508499 8.324680 21.835600 0.000000 27.016199 0.000000 -8.432550 0.310585 -5.843520 8.395319 6.015443 -2.996826 0.000000 0.000000 21.500900 -9.787076 10.858338 9.113552 0.000000 0.000000 -21.073180 9.863037 6.923448 6.552155 0.000000 0.000000 5.899100 12.546099 -23.381379 8.522481 0.000000 0.000000 -11.886050 
-23.216367 9.251436 53.211558 -177.989141 42.596104 178.545750 5.192316 -7.358298 -20.381204 3.226581 1.020360 38.287373 0.000000 0.000000 0.000000 -23.030029 11.480525 7.984614 1.094442 15.238687 -51.178795 -30.366600 -3.239310 -8.281710 -33.003201 -1.047330 38.008999 0.000000 -35.314201 0.000000 34.791500 -11.446700 22.098700 25.089500 3.672650 -4.111130 36.283600 8.292020 21.355700 0.000000 28.128000 0.000000 -9.160060 0.446916 -5.982240 8.620087 6.350754 -2.142514 0.000000 0.000000 21.051300 -11.271386 10.900337 8.723446 0.000000 0.000000 -19.335200 10.079161 7.155365 6.636565 0.000000 0.000000 6.079980 12.596278 -23.414631 8.388729 0.000000 0.000000 -11.799680 
-23.221793 9.245116 53.208381 -177.637092 42.785867 178.582688 5.185120 -7.633710 -20.385480 4.114461 1.056133 38.105434 0.000000 0.000000 0.000000 -24.493070 12.724275 9.510077 1.109715 15.076168 -49.604397 -30.684700 -3.215030 -8.179970 -32.614201 -1.516260 37.483700 0.000000 -37.187099 0.000000 37.132301 -12.910100 19.665501 24.658001 3.447540 -4.087890 36.135799 8.069000 20.932100 0.000000 29.240900 0.000000 -10.142100 0.628099 -6.246670 8.879810 6.906971 -1.085791 0.000000 0.000000 19.907200 -12.296190 10.599051 8.286408 0.000000 0.000000 -17.527630 10.361142 7.503521 6.738810 0.000000 0.000000 6.284420 12.668050 -23.537814 8.261116 0.000000 0.000000 -11.755310 
-23.229828 9.239483 53.200673 -177.245266 42.876151 178.700523 5.233070 -7.910618 -20.369606 4.926356 1.048252 37.859954 0.000000 0.000000 0.000000 -25.742505 13.708347 10.946300 1.187198 14.873627 -48.959108 -30.986601 -3.046830 -8.087230 -32.283600 -2.086010 37.359699 0.000000 -38.917301 0.000000 38.618198 -14.329600 24.617001 24.259800 3.218120 -3.880240 35.972000 7.899040 20.577101 0.000000 30.212400 0.000000 -11.189400 0.804467 -7.178830 9.092068 7.829279 0.020981 0.000000 0.000000 18.140900 -12.323522 10.467136 7.876837 0.000000 0.000000 -16.041560 10.626824 7.785761 6.833147 0.000000 0.000000 6.413460 12.819760 -23.623915 8.169074 0.000000 0.000000 -11.787870 
-23.239073 9.234757 53.189859 -176.919894 42.990443 178.657196 5.333749 -7.912190 -20.280019 5.343813 1.102438 37.764315 0.000000 0.000000 0.000000 -26.453720 14.261189 11.997362 1.192926 14.846851 -48.785132 -31.170300 -2.958750 -8.122850 -31.842100 -2.779110 36.911999 0.000000 -40.890800 0.000000 40.871399 -15.153200 19.647301 24.040800 2.980070 -3.918020 35.917198 7.581450 20.408701 0.000000 31.025499 0.000000 -11.979700 1.037360 -8.114370 9.287154 9.025597 1.392707 0.000000 0.000000 15.890300 -11.915394 10.664150 7.799096 0.000000 0.000000 -14.500611 10.881338 8.277527 7.066749 0.000000 0.000000 6.538880 12.962053 -23.864786 8.057418 0.000000 0.000000 -11.906450 
-23.250156 9.229696 53.177712 -176.607046 42.963412 178.711490 5.481117 -7.848950 -20.272440 5.498860 1.119257 37.661536 0.000000 0.000000 0.000000 -26.903478 14.670045 12.613254 1.435614 14.824775 -48.650129 -31.156401 -2.939670 -8.137300 -31.517599 -3.313940 36.289398 0.000000 -42.771198 0.000000 41.824600 -16.481400 22.702000 23.972799 2.792690 -3.843510 35.882702 7.307940 20.163000 0.000000 31.605499 0.000000 -12.539700 1.147820 -8.961650 9.507391 10.411022 2.634889 0.000000 0.000000 13.729800 -11.379862 10.442582 7.839450 0.000000 0.000000 -13.521680 11.094345 8.606594 7.210480 0.000000 0.000000 6.613870 13.222945 -24.058625 7.848661 0.000000 0.000000 -11.927380 
